<svg width="25" height="41" viewBox="0 0 25 41" fill="none" xmlns="http://www.w3.org/2000/svg">
<g clip-path="url(#clip0_60_2)">
<path fill-rule="evenodd" clip-rule="evenodd" d="M6.58001 1.27L22.97 17.66C23.3074 17.9955 23.5752 18.3944 23.7579 18.8337C23.9407 19.2731 24.0347 19.7442 24.0347 20.22C24.0347 20.6958 23.9407 21.167 23.7579 21.6063C23.5752 22.0456 23.3074 22.4445 22.97 22.78L6.58001 39.17C5.10001 40.65 3.07001 40.95 1.58001 39.48L0.960008 38.86C-0.149992 37.56 -0.459992 36.02 0.840008 34.86C4.84001 30.86 8.84001 26.79 12.91 22.79C13.2474 22.4545 13.5152 22.0556 13.6979 21.6163C13.8807 21.177 13.9747 20.7058 13.9747 20.23C13.9747 19.7542 13.8807 19.2831 13.6979 18.8437C13.5152 18.4044 13.2474 18.0055 12.91 17.67L0.850008 5.58C-0.449992 4.41 -0.149992 2.87 0.970008 1.52L1.59001 0.960004C3.07001 -0.509996 5.10001 -0.209996 6.59001 1.27H6.58001Z" fill="#FABC2F"/>
</g>
<defs>
<clipPath id="clip0_60_2">
<rect width="24.03" height="40.45" fill="white"/>
</clipPath>
</defs>
</svg>
